<svg xmlns="http://www.w3.org/2000/svg" viewBox="0 0 16 16" shape-rendering="crispEdges"><path fill="#FBA700" d="M9 8h5v1h-5zM9 10h5v1h-5zM3 12h3v1h-3zM9 12h4v1h-4zM6 13h3v1h-3z"/><path fill="#FFBA1F" d="M6 6h1v1h-1zM9 6h1v1h-1zM8 7h1v1h-1zM13 7h1v1h-1zM8 9h1v1h-1zM13 9h1v1h-1zM2 11h1v1h-1zM5 11h1v1h-1zM8 11h1v1h-1zM13 11h1v1h-1zM6 12h1v1h-1zM9 13h1v1h-1zM12 13h1v1h-1zM10 14h2v1h-2z"/><path fill="#905A0C" d="M7 1h2v1h-2zM6 2h1v1h-1zM9 2h1v1h-1zM6 3h1v1h-1zM9 3h1v1h-1zM6 4h1v1h-1zM9 4h1v1h-1zM6 5h1v1h-1zM10 5h3v1h-3zM3 6h3v1h-3zM13 6h1v1h-1zM2 7h1v1h-1zM14 7h1v1h-1zM1 8h1v1h-1zM14 8h1v1h-1zM1 9h1v1h-1zM14 9h1v1h-1zM1 10h1v1h-1zM14 10h1v1h-1zM1 11h1v1h-1zM14 11h1v1h-1zM2 12h1v1h-1zM13 12h1v1h-1zM3 13h3v1h-3zM13 13h1v1h-1zM6 14h4v1h-4zM12 14h1v1h-1zM10 15h2v1h-2z"/><path fill="#FFD248" d="M7 2h2v1h-2zM7 3h2v1h-2zM7 4h2v1h-2zM7 5h3v1h-3zM7 6h2v1h-2zM10 6h3v1h-3zM3 7h5v1h-5zM9 7h4v1h-4zM2 8h7v1h-7zM2 9h6v1h-6zM9 9h4v1h-4zM2 10h7v1h-7zM3 11h2v1h-2zM6 11h2v1h-2zM9 11h4v1h-4zM7 12h2v1h-2zM10 13h2v1h-2z"/></svg>